<svg width="592" height="592" viewBox="0 0 592 592" fill="none" xmlns="http://www.w3.org/2000/svg">
<g clip-path="url(#clip0_274_31)">
<path d="M295.94 546.89C228.91 546.89 165.89 520.79 118.5 473.39C71.1 425.99 45 362.97 45 295.95C45 228.93 71.1 165.9 118.5 118.51C165.9 71.1098 228.91 45.0098 295.94 45.0098C362.97 45.0098 425.99 71.1098 473.38 118.51C520.78 165.91 546.88 228.93 546.88 295.95C546.88 362.97 520.78 426 473.38 473.39C425.98 520.79 362.97 546.89 295.94 546.89Z" fill="#FF0000"/>
<path d="M295.94 90C409.68 90 501.88 182.2 501.88 295.94C501.88 409.68 409.68 501.88 295.94 501.88C182.2 501.88 90 409.68 90 295.94C90 182.2 182.2 90 295.94 90ZM295.94 0C256.03 0 217.26 7.84 180.72 23.29C145.47 38.2 113.83 59.53 86.68 86.68C59.53 113.83 38.2 145.47 23.29 180.72C7.84 217.27 0 256.03 0 295.94C0 335.85 7.84 374.62 23.29 411.16C38.2 446.41 59.53 478.05 86.68 505.2C113.83 532.35 145.47 553.68 180.72 568.59C217.26 584.05 256.03 591.88 295.94 591.88C335.85 591.88 374.62 584.04 411.16 568.59C446.41 553.68 478.05 532.35 505.2 505.2C532.35 478.05 553.68 446.41 568.59 411.16C584.05 374.62 591.88 335.85 591.88 295.94C591.88 256.03 584.04 217.26 568.59 180.72C553.68 145.47 532.35 113.83 505.2 86.68C478.05 59.53 446.41 38.2 411.16 23.29C374.62 7.84 335.86 0 295.94 0Z" fill="black"/>
<path d="M295.94 90C409.68 90 501.88 182.2 501.88 295.94C501.88 409.68 409.68 501.88 295.94 501.88C182.2 501.88 90.0002 409.68 90.0002 295.94C90.0002 182.2 182.2 90 295.94 90ZM295.94 10C257.37 10 219.92 17.57 184.61 32.5C150.55 46.91 119.98 67.51 93.7402 93.75C67.5102 119.98 46.9002 150.56 32.4902 184.62C17.5602 219.92 9.99023 257.38 9.99023 295.95C9.99023 334.52 17.5602 371.97 32.4902 407.28C46.9002 441.34 67.5002 471.91 93.7402 498.15C119.97 524.38 150.55 544.99 184.61 559.4C219.91 574.33 257.37 581.9 295.94 581.9C334.51 581.9 371.96 574.33 407.27 559.4C441.33 544.99 471.9 524.39 498.14 498.15C524.37 471.92 544.98 441.34 559.39 407.28C574.32 371.98 581.89 334.52 581.89 295.95C581.89 257.38 574.32 219.93 559.39 184.62C544.98 150.56 524.38 119.99 498.14 93.75C471.91 67.52 441.33 46.91 407.27 32.5C371.97 17.57 334.51 10 295.94 10Z" fill="white"/>
<path d="M295.94 90C409.68 90 501.88 182.2 501.88 295.94C501.88 409.68 409.68 501.88 295.94 501.88C182.2 501.88 90 409.68 90 295.94C90 182.2 182.2 90 295.94 90ZM295.94 80C266.79 80 238.51 85.71 211.88 96.97C186.16 107.85 163.07 123.42 143.24 143.24C123.41 163.07 107.84 186.16 96.97 211.88C85.71 238.51 80 266.79 80 295.94C80 325.09 85.71 353.37 96.97 380C107.85 405.72 123.42 428.81 143.24 448.64C163.07 468.47 186.16 484.04 211.88 494.91C238.51 506.17 266.79 511.88 295.94 511.88C325.09 511.88 353.37 506.17 380 494.91C405.72 484.03 428.81 468.46 448.64 448.64C468.47 428.81 484.04 405.72 494.91 380C506.17 353.37 511.88 325.09 511.88 295.94C511.88 266.79 506.17 238.51 494.91 211.88C484.03 186.16 468.46 163.07 448.64 143.24C428.81 123.41 405.72 107.84 380 96.97C353.37 85.71 325.09 80 295.94 80Z" fill="black"/>
<path d="M423.211 381.58C419.301 369.51 415.501 357.38 412.441 345.07C409.411 332.88 401.001 324.05 394.471 314.07C389.191 306 383.711 298 377.621 290.55C365.091 275.21 360.381 257.3 358.981 238.1C358.831 236.07 358.591 233.96 357.911 232.08C357.221 230.19 355.921 228.53 354.891 226.77C355.101 226.28 349.891 216.97 349.751 216.94C339.471 205.83 328.701 196.25 325.651 180.89C321.641 160.63 307.221 144.04 305.311 123.06C296.201 120.89 288.531 116.79 279.481 117.94C266.141 119.64 252.721 120.69 239.351 122.11C232.961 122.79 227.351 121.51 222.821 117.11C222.961 116.9 223.091 116.68 223.231 116.47C231.051 104.22 247.581 83.0704 247.581 83.0704L236.551 75.6504C231.121 82.3204 225.881 89.1504 220.221 95.6304C212.031 105.01 193.011 120.87 193.011 120.87L188.211 123.08L185.261 134.92L184.541 137.8L174.161 145.9L165.501 149.1L160.901 157.95L150.671 162.23L150.331 162.38L150.171 162.73L148.041 167.39L155.241 177.61C155.241 177.61 135.841 201.25 127.901 210.96C124.921 209.59 121.251 207.52 117.481 205.24C107.231 199.01 95.6709 188.43 95.6709 188.43L69 217.84L58 244.88L94.1309 269.68L118.201 285.95L160.681 298.94C169.971 292.62 177.781 284.55 187.261 275.51C175.381 264.07 161.881 239.77 161.881 239.77L142.771 225.82L165.211 191.87L167.791 186.84L170.371 188.43L185.461 187.16C187.611 183.39 193.461 175.17 193.461 175.17L202.641 189.28L204.861 190.03L205.501 198.32L202.641 237.16L246.341 274.76C246.341 274.76 265.261 287.03 274.731 295.52C257.571 303.31 250.621 316.43 253.261 333.83C236.841 346.87 230.481 364.46 225.561 382.94C224.071 388.53 222.021 394.07 217.741 398.39C198.751 417.56 190.811 441.69 186.651 467.56C186.281 469.84 185.901 472.12 185.491 474.4C188.271 476.13 191.081 477.79 193.941 479.37C198.501 453.98 203.551 429.06 221.961 408.74C228.631 401.37 232.181 392.5 234.481 383.08C240.511 358.46 273.701 323.05 273.701 323.05L271.461 321.48L264.841 324.96L266.831 311.33L286.461 297.64L280.301 291.42C280.301 291.42 275.401 289.45 272.871 287.1L295.221 292.3L295.701 291.03L281.921 285.77H281.901C270.001 279.74 257.751 274.49 246.441 267.13C233.431 258.66 223.271 247.76 214.391 235.43C207.291 192.92 219.631 182.39 259.961 171.99C257.621 169.91 254.581 171.56 251.851 170.57C255.661 156.78 268.581 151.93 277.611 143.08C269.981 145.78 262.361 148.48 254.741 151.18C253.131 154.79 251.621 158.18 250.131 161.56C250.261 150.67 242.891 142.83 238.561 132.17C258.041 132.9 276.531 124.05 295.591 131.57C296.701 135.71 297.681 139.32 298.531 142.5C294.041 175.69 278.481 203.3 258.221 229.28C259.861 241.18 262.391 253.13 266.951 264.68C266.051 254.6 265.131 244.53 264.091 232.82C280.751 216.21 290.071 193.58 301.141 171.83C310.771 177.96 317.861 185.28 318.441 197.42C312.921 199.15 306.041 201.82 299.701 202.18C299.481 202.18 297.981 199.62 297.981 199.62L296.691 199.72L296.961 202.19C296.961 202.19 297.051 203.76 297.101 204.55C304.381 206.23 313.011 201.42 320.621 202.44C324.691 206.23 329.161 209.95 333.131 214.17C342.371 223.98 350.831 234.25 349.831 249.06C349.401 255.34 351.421 261.35 353.211 267.17C356.691 278.52 355.541 308.01 355.541 308.01L357.681 308.99C357.681 308.99 362.171 297.68 363.951 293.31C405.301 336.83 418.741 388.84 412.151 447.18C411.651 450.19 408.261 451.36 407.071 453.31C410.191 456.27 412.411 459.27 413.921 462.29C417.051 459.85 420.091 457.33 423.061 454.71C422.641 452.56 422.251 450.42 421.951 448.26C419.871 433.56 423.201 418.05 424.611 402.94C425.291 395.66 425.511 388.68 423.211 381.57V381.58ZM236.891 80.8504L239.731 82.7604C239.731 82.7604 224.161 105.12 216.281 115.59C215.331 114.8 212.431 114.46 211.471 113.68C219.511 103.37 236.881 80.8504 236.881 80.8504H236.891ZM170.041 266.61L152.321 266.24L145.721 266.92C145.721 266.92 169.091 272.75 174.691 273.87C168.931 279.44 157.071 290.95 157.071 290.95L120.341 279.17C120.341 279.17 120.311 279.15 120.241 279.1C120.211 279.07 120.161 279.04 120.111 279.01C119.311 278.44 116.391 276.34 112.171 273.39C111.881 273.19 111.581 272.97 111.281 272.76C111.191 272.7 111.111 272.63 111.021 272.58C110.211 272.02 109.371 271.43 108.491 270.81C107.321 269.98 106.071 269.13 104.781 268.25C104.181 267.83 103.561 267.41 102.941 266.98C102.901 266.95 102.861 266.92 102.811 266.89C102.141 266.43 101.461 265.97 100.771 265.49C99.1209 264.36 97.4209 263.2 95.6709 262.03C93.4009 260.5 91.0709 258.94 88.7109 257.39C88.3309 257.14 87.9509 256.89 87.5709 256.64C86.8109 256.14 86.0609 255.65 85.3009 255.15C84.9209 254.91 84.5409 254.66 84.1609 254.41C83.4009 253.92 82.6509 253.44 81.9009 252.95C80.7609 252.22 79.6409 251.51 78.5309 250.81C78.1509 250.58 77.7809 250.34 77.4109 250.11C77.0409 249.89 76.6709 249.65 76.3109 249.43C74.8409 248.52 73.4009 247.64 72.0009 246.8C71.3009 246.37 70.6009 245.97 69.9209 245.57C69.2409 245.17 68.5709 244.78 67.9109 244.41C67.5809 244.23 67.2509 244.03 66.9309 243.86C66.6109 243.68 66.2909 243.49 65.9709 243.32C69.2109 236.82 71.9609 231.32 75.2009 224.84C76.0809 225.43 77.0009 226.05 77.9509 226.69C78.8609 227.31 79.8009 227.95 80.7709 228.61C82.8209 230.01 84.9809 231.49 87.2309 233.04C88.2209 233.72 89.2209 234.41 90.2409 235.11C93.7209 237.52 97.3509 240.02 100.951 242.52C102.621 243.68 104.291 244.83 105.951 245.98C106.931 246.66 107.901 247.33 108.861 247.99C114.961 252.2 120.691 256.15 125.321 259.27C126.421 259.17 127.501 259.08 128.591 258.98C126.901 257.57 125.071 256.06 123.121 254.45C122.631 254.06 122.141 253.65 121.641 253.24C120.971 252.7 120.301 252.14 119.611 251.58C118.761 250.88 117.881 250.16 116.991 249.43C116.271 248.85 115.551 248.27 114.831 247.67C113.931 246.93 113.011 246.18 112.091 245.43C111.861 245.25 111.631 245.06 111.401 244.88C110.521 244.16 109.621 243.43 108.731 242.71C106.691 241.06 104.631 239.38 102.581 237.71C95.4409 231.91 88.3009 226.11 82.2809 221.14C81.8209 220.75 81.3709 220.38 80.9109 220C80.0209 219.25 79.1409 218.53 78.3109 217.84C85.2409 211.94 90.3109 205.3 97.5109 199.16C99.0609 200.4 101.031 201.97 103.171 203.65C103.711 204.08 104.271 204.51 104.831 204.97C107.141 206.79 109.551 208.7 111.761 210.45C112.321 210.89 112.871 211.32 113.391 211.74C113.521 211.84 113.651 211.94 113.781 212.04C114.771 212.83 115.701 213.56 116.531 214.21C116.881 214.49 117.221 214.75 117.531 215C119.301 216.4 120.411 217.28 120.411 217.28L113.041 230.66L125.051 243.54L137.881 232.1L170.011 266.62L170.041 266.61ZM125.671 235.49L121.421 231.25C121.421 231.25 155.471 185.26 163.701 183.95C150.441 201.92 125.681 235.5 125.681 235.5L125.671 235.49ZM188.281 173.07L183.811 179.31L173.551 172.29L171.781 174.08L179.911 183.94L173.091 184.68L154.811 167.38L155.931 165.11L165.051 163.17L168.921 154.32L176.511 152.33L181.351 145.55L190.871 154.14L191.841 170L182.461 163.83L181.361 165.12L188.261 173.07H188.281ZM193.081 140.02L192.731 140.29L192.201 130.8L192.041 128.13L195.751 125.51L208.631 122.41L211.941 121.61C211.991 121.69 212.441 122.26 214.371 122.91C207.161 129.03 195.241 138.33 193.071 140.01L193.081 140.02ZM243.481 169.92C238.651 171.93 229.261 163.66 228.671 163.13C228.511 163.18 228.351 163.25 228.181 163.3C228.441 163.19 228.641 163.1 228.641 163.1C228.641 163.1 228.641 163.1 228.671 163.13C233.121 161.49 237.861 160.54 242.101 157.73C244.351 161.47 244.311 165.41 243.491 169.91L243.481 169.92ZM240.641 149.02C236.031 153.22 232.451 159.36 227.471 162.59C223.541 165.13 218.541 165.51 212.791 164.22C209.091 165.94 208.721 168.68 207.771 172.06C215.891 171.72 221.841 167.64 227.761 163.47C227.801 163.45 227.841 163.44 227.881 163.42C228.721 166.27 229.581 169.13 230.521 172.3C225.041 176.55 217.721 176.17 213.441 180.97C209.781 179.19 206.151 179.05 203.031 175.99C201.051 169.79 198.871 162.96 196.741 156.3C197.391 149.75 201.101 144.58 202.351 139.33C216.921 128.72 233.591 133.58 240.651 149.01L240.641 149.02ZM304.801 157.86C309.091 160.63 309.481 164.39 310.991 168.11C305.638 166.277 303.574 162.86 304.801 157.86ZM369.921 402.51L379.731 406.83C379.731 406.83 380.501 405.83 380.801 405.53C370.011 396.4 364.891 385.62 358.531 378.43C345.741 363.99 344.901 347.73 349.561 329.64C349.901 328.36 347.471 326.59 347.471 326.59L339.631 349.19L335.481 349.01C335.481 349.01 343.471 325.28 338.891 312.67C333.241 309.5 320.601 301.7 313.801 297.88C313.201 298.48 312.601 299.09 312.001 299.7C317.241 303.96 328.341 312.18 332.121 315.26C327.821 340.68 313.271 357.64 294.631 372.28C293.491 367.53 297.501 357.61 297.501 357.61L294.931 358.21C294.931 358.21 281.331 383.7 274.681 396.52C269.941 405.64 260.391 409.18 253.141 416.03H237.801C240.391 420.46 245.881 419.19 248.251 423.16C246.821 427.5 245.591 432.29 241.651 435.28C230.901 443.44 226.231 455.1 222.161 467.3C219.711 474.63 217.001 481.87 214.261 489.24C217.511 490.59 220.821 491.87 224.161 493.05C232.581 474.39 234.701 453.33 251.851 439.6C254.311 437.63 255.891 434.92 257.261 432.09C260.931 424.53 265.691 417.97 273.151 413.56C275.761 412.02 278.761 410 280.001 407.43C290.751 385.13 313.771 374.28 328.141 354.34C331.621 356.89 334.741 359.67 339.701 358.16C339.701 367.88 345.451 374.16 350.561 380.43C358.301 389.91 361.701 400.75 363.091 412.55C364.611 425.59 366.671 438.49 373.521 449.7C371.391 459.55 369.371 468.96 367.381 478.17C367.711 481.67 369.111 484.9 370.171 488.25C373.391 486.86 376.571 485.4 379.701 483.83C377.111 470.17 379.651 458.14 386.611 452.97C375.161 441.81 369.201 405.14 369.201 405.14L369.911 402.51H369.921Z" fill="black"/>
<path d="M239.74 82.7713C239.74 82.7713 224.17 105.131 216.29 115.601C215.34 114.811 212.44 114.471 211.48 113.691C219.52 103.381 236.89 80.8613 236.89 80.8613L239.73 82.7713H239.74Z" fill="white"/>
<path d="M214.381 122.921L192.731 140.291L192.041 128.131L195.751 125.511L211.941 121.621L214.381 122.921Z" fill="white"/>
<path d="M174.69 273.87C168.93 279.44 157.07 290.95 157.07 290.95L120.34 279.17C120.34 279.17 86.2702 254.63 65.9902 243.33C69.2302 236.83 71.9802 231.33 75.2202 224.85C89.0402 234.14 111.86 250.2 125.34 259.27C126.44 259.17 127.52 259.08 128.61 258.98C115.11 247.71 92.2802 229.46 78.3402 217.83C85.2702 211.93 90.3402 205.29 97.5402 199.15C104.65 204.81 120.44 217.28 120.44 217.28L113.07 230.66L125.08 243.54L137.91 232.1L170.04 266.62L152.32 266.25L145.72 266.93C145.72 266.93 169.1 272.76 174.69 273.88V273.87Z" fill="white"/>
<path d="M163.692 183.951C150.432 201.921 125.672 235.501 125.672 235.501L121.422 231.261C121.422 231.261 155.472 185.271 163.702 183.961L163.692 183.951Z" fill="white"/>
<path d="M181.381 165.121L188.281 173.071L183.821 179.321L173.561 172.301L171.791 174.081L179.911 183.951L173.091 184.681L154.811 167.381L155.931 165.111L165.051 163.171L168.931 154.321L176.521 152.331L181.361 145.551L190.881 154.141L191.851 170.011L182.481 163.831L181.381 165.121Z" fill="white"/>
<path d="M310.98 168.111C305.627 166.278 303.564 162.861 304.79 157.861C309.08 160.631 309.47 164.391 310.98 168.111Z" fill="white"/>
<path d="M243.482 169.92C238.652 171.93 229.262 163.66 228.672 163.13C233.122 161.49 237.862 160.54 242.102 157.73C244.352 161.47 244.312 165.41 243.492 169.91L243.482 169.92Z" fill="white"/>
<path d="M240.63 149.02C236.02 153.22 232.44 159.36 227.46 162.59C223.53 165.13 218.53 165.51 212.78 164.22C209.08 165.94 208.71 168.68 207.76 172.06C215.88 171.72 221.83 167.64 227.75 163.47C227.79 163.45 227.83 163.44 227.87 163.42C228.71 166.27 229.57 169.13 230.51 172.3C225.03 176.55 217.71 176.17 213.43 180.97C209.77 179.19 206.14 179.05 203.02 175.99C201.04 169.79 198.86 162.96 196.73 156.3C197.38 149.75 201.09 144.58 202.34 139.33C216.91 128.72 233.58 133.58 240.64 149.01L240.63 149.02Z" fill="white"/>
<path d="M407.062 453.32C408.242 451.38 411.642 450.2 412.142 447.19C418.732 388.85 405.302 336.84 363.942 293.32C362.162 297.69 357.672 309 357.672 309L355.532 308.02C355.532 308.02 356.692 278.53 353.202 267.18C351.412 261.36 349.392 255.35 349.822 249.07C350.822 234.27 342.362 224 333.122 214.18C329.152 209.97 324.672 206.24 320.612 202.45C313.002 201.43 304.372 206.24 297.092 204.56C297.042 203.77 296.952 202.2 296.952 202.2L296.682 199.73L297.972 199.63C297.972 199.63 299.462 202.19 299.692 202.19C306.032 201.83 312.902 199.16 318.432 197.43C317.852 185.3 310.762 177.97 301.132 171.84C290.052 193.59 280.742 216.22 264.082 232.83C265.132 244.54 266.042 254.61 266.942 264.69C262.392 253.14 259.852 241.19 258.212 229.29C278.482 203.3 294.032 175.7 298.522 142.51C297.672 139.33 296.692 135.71 295.582 131.58C276.522 124.07 258.032 132.91 238.552 132.18C242.882 142.85 250.252 150.68 250.122 161.57C251.612 158.19 253.122 154.8 254.732 151.19C262.352 148.49 269.972 145.79 277.602 143.09C268.562 151.94 255.642 156.79 251.842 170.58C254.572 171.57 257.612 169.92 259.952 172C219.632 182.4 207.292 192.93 214.382 235.44C223.262 247.78 233.432 258.67 246.432 267.14C257.742 274.5 269.992 279.75 281.892 285.77H281.912L295.692 291.04L295.212 292.31L272.862 287.1C275.382 289.46 280.292 291.43 280.292 291.43L286.452 297.65L266.822 311.34L264.832 324.97L271.452 321.49L273.692 323.06C273.692 323.06 240.502 358.47 234.472 383.09C232.172 392.51 228.622 401.38 221.952 408.75C203.552 429.07 198.502 453.99 193.932 479.38C200.462 483.03 207.232 486.31 214.202 489.21C216.942 481.84 219.662 474.6 222.102 467.27C226.172 455.07 230.852 443.41 241.592 435.25C245.532 432.26 246.762 427.46 248.192 423.13C245.822 419.17 240.342 420.43 237.742 416H253.082C260.332 409.15 269.882 405.61 274.622 396.49C281.272 383.67 294.872 358.18 294.872 358.18L297.442 357.58C297.442 357.58 293.432 367.5 294.572 372.25C313.212 357.61 327.762 340.65 332.062 315.23C328.272 312.15 317.182 303.93 311.942 299.67C312.532 299.07 313.132 298.46 313.742 297.85C320.542 301.67 333.182 309.47 338.832 312.64C343.412 325.25 335.422 348.98 335.422 348.98L339.572 349.16L347.412 326.56C347.412 326.56 349.842 328.33 349.502 329.61C344.842 347.69 345.682 363.95 358.472 378.4C364.832 385.59 369.942 396.37 380.742 405.5C380.442 405.8 379.672 406.8 379.672 406.8L369.862 402.48L369.152 405.11C369.152 405.11 375.102 441.77 386.562 452.94C379.602 458.11 377.062 470.14 379.652 483.8C391.812 477.78 403.282 470.55 413.882 462.27C412.372 459.25 410.142 456.25 407.032 453.29L407.062 453.32ZM281.252 221.79L275.402 222.9L288.172 211.6L289.372 213.27L281.242 221.79H281.252ZM297.212 277.88L290.412 258.86L288.962 245.76L291.962 244.96L299.052 277.87H297.212V277.88ZM345.452 271.52L344.192 271.92L336.332 267.1L336.892 266.85L341.742 268L343.412 267.63L345.062 265.49L345.712 265.7L345.452 271.52Z" fill="white"/>
<path d="M289.38 213.27L281.26 221.79L275.41 222.9L288.18 211.6L289.38 213.27Z" fill="black"/>
<path d="M345.71 265.7L345.45 271.52L344.19 271.92L336.33 267.1L336.89 266.85L341.74 267.99L343.41 267.62L345.06 265.49L345.71 265.7Z" fill="black"/>
<path d="M299.06 277.881H297.22L290.42 258.871L288.98 245.771L291.98 244.971L299.06 277.881Z" fill="black"/>
<path d="M65.3293 142.051C66.0293 140.981 66.8993 140.101 67.9393 139.431C68.9693 138.751 70.0693 138.291 71.2393 138.051C72.3993 137.811 73.5893 137.801 74.8093 138.011C76.0293 138.221 77.1793 138.681 78.2493 139.381L105.959 157.581C107.029 158.281 107.909 159.161 108.579 160.191C109.259 161.231 109.719 162.321 109.959 163.481C110.199 164.641 110.219 165.831 109.999 167.051C109.789 168.271 109.329 169.421 108.629 170.491L102.539 179.771C102.159 180.351 101.679 180.451 101.099 180.071L59.5393 152.771C58.9593 152.391 58.8593 151.911 59.2393 151.341L65.3293 142.061V142.051ZM73.7993 146.821C73.3893 146.551 72.9393 146.461 72.4593 146.561C71.9793 146.661 71.6093 146.911 71.3393 147.331L70.0393 149.311L100.099 169.061L101.399 167.081C101.669 166.671 101.759 166.221 101.659 165.741C101.559 165.261 101.299 164.891 100.889 164.621L73.7993 146.821Z" fill="black"/>
<path d="M122.508 139.921L127.578 144.121C128.108 144.561 128.158 145.051 127.718 145.581L117.478 157.951C117.038 158.481 116.548 158.531 116.018 158.091L77.7185 126.371C77.1885 125.931 77.1385 125.441 77.5785 124.911L87.8185 112.541C88.2585 112.011 88.7485 111.961 89.2785 112.401L94.3485 116.601C94.8785 117.041 94.9285 117.531 94.4885 118.061L89.1085 124.561L97.3185 131.361L101.988 125.721C102.428 125.191 102.918 125.141 103.448 125.581L108.518 129.781C109.048 130.221 109.098 130.711 108.658 131.241L103.988 136.881L115.668 146.561L121.048 140.061C121.488 139.531 121.978 139.481 122.508 139.921Z" fill="black"/>
<path d="M127.979 76.1294L160.189 114.009C160.639 114.539 160.599 115.019 160.069 115.469L154.659 120.069C154.129 120.519 153.649 120.479 153.199 119.949L138.049 102.139L146.699 119.849C146.779 120.099 146.769 120.279 146.659 120.369C146.549 120.469 146.369 120.449 146.139 120.329L130.049 108.949L145.199 126.759C145.649 127.289 145.609 127.769 145.079 128.219L139.669 132.819C139.139 133.269 138.659 133.229 138.209 132.699L105.999 94.8194C105.549 94.2894 105.589 93.8094 106.119 93.3594L110.909 89.2894C111.139 89.0994 111.409 89.0194 111.719 89.0394C112.029 89.0694 112.309 89.1394 112.539 89.2594L134.159 105.659L121.449 81.6894C121.369 81.4394 121.339 81.1594 121.359 80.8394C121.379 80.5294 121.509 80.2794 121.739 80.0794L126.529 75.9994C127.059 75.5494 127.539 75.5894 127.989 76.1194L127.979 76.1294Z" fill="black"/>
<path d="M182.71 99.4194C183.17 99.9494 183.11 100.399 182.53 100.769L176.87 104.419C176.33 104.769 175.83 104.679 175.38 104.149L170.55 97.7594L166.7 100.249L170.54 107.289C170.83 107.919 170.71 108.409 170.17 108.759L164.51 112.409C163.93 112.789 163.49 112.659 163.2 112.019L140.9 67.2294C140.61 66.5994 140.75 66.0894 141.33 65.7194L149.54 60.4194C150.12 60.0494 150.64 60.1194 151.1 60.6494L182.73 99.4194H182.71ZM165.55 91.1194L153.49 75.0294L152.99 75.3494L162.68 92.9594L165.54 91.1094L165.55 91.1194Z" fill="black"/>
<path d="M185.599 42.4495L207.339 87.1695C207.639 87.7895 207.479 88.2495 206.859 88.5495L202.599 90.6195C202.329 90.7495 202.029 90.7895 201.699 90.7295C201.369 90.6695 201.109 90.5495 200.909 90.3695L183.149 71.7695L193.829 93.7295C194.129 94.3495 193.969 94.8095 193.349 95.1095L187.429 97.9895C186.809 98.2895 186.349 98.1295 186.049 97.5095L164.299 52.7895C163.999 52.1695 164.159 51.7095 164.779 51.4095L169.169 49.2695C169.429 49.1395 169.729 49.1095 170.059 49.1595C170.389 49.2195 170.649 49.3395 170.849 49.5195L188.159 67.5195L177.799 46.2195C177.499 45.5995 177.659 45.1395 178.279 44.8295L184.199 41.9495C184.819 41.6495 185.279 41.8095 185.579 42.4295L185.599 42.4495Z" fill="black"/>
<path d="M236.63 25.8092L249.81 73.7592C249.99 74.4292 249.75 74.8492 249.09 75.0292L242.24 76.9092C241.57 77.0892 241.15 76.8492 240.97 76.1892L234.77 53.6392L235.12 73.3392C235.09 73.6092 235 73.7592 234.86 73.7992C234.72 73.8392 234.57 73.7492 234.4 73.5392L224.63 56.4292L230.83 78.9792C231.01 79.6492 230.77 80.0692 230.11 80.2492L223.26 82.1292C222.59 82.3092 222.17 82.0692 221.99 81.4092L208.81 33.4592C208.63 32.7892 208.87 32.3692 209.53 32.1892L215.6 30.5192C215.89 30.4392 216.16 30.4792 216.44 30.6392C216.71 30.7892 216.93 30.9792 217.09 31.1892L229.75 55.1792L228.37 28.0892C228.4 27.8292 228.49 27.5592 228.65 27.2792C228.81 26.9992 229.03 26.8292 229.31 26.7492L235.38 25.0792C236.05 24.8992 236.47 25.1392 236.65 25.8092H236.63Z" fill="black"/>
<path d="M272.249 63.8998L273.179 70.4198C273.279 71.0998 272.979 71.4898 272.299 71.5898L256.399 73.8598C255.719 73.9598 255.319 73.6698 255.229 72.9798L248.179 23.7498C248.079 23.0698 248.369 22.6798 249.059 22.5798L264.959 20.3098C265.639 20.2098 266.029 20.5098 266.129 21.1898L267.059 27.7098C267.159 28.3898 266.859 28.7798 266.179 28.8798L257.829 30.0798L259.339 40.6298L266.589 39.5898C267.269 39.4898 267.669 39.7898 267.759 40.4698L268.689 46.9898C268.789 47.6698 268.499 48.0598 267.809 48.1598L260.559 49.1998L262.709 64.2198L271.059 63.0298C271.739 62.9298 272.139 63.2298 272.229 63.9098L272.249 63.8998Z" fill="black"/>
<path d="M296.619 19.5001L296.859 26.0801C296.879 26.7701 296.549 27.1301 295.859 27.1501L290.609 27.3401L292.149 69.4201C292.179 70.1101 291.839 70.4701 291.149 70.4901L284.569 70.7301C284.319 70.7301 284.089 70.6501 283.859 70.4601C283.629 70.2701 283.509 70.0301 283.499 69.7301L281.949 27.6501L276.769 27.8401C276.079 27.8701 275.719 27.5301 275.699 26.8401L275.459 20.2601C275.429 19.5701 275.769 19.2101 276.459 19.1901L295.539 18.4901C296.229 18.4601 296.589 18.8001 296.609 19.4901L296.619 19.5001Z" fill="black"/>
<path d="M331.54 20.9297C332.81 21.0897 333.98 21.4797 335.05 22.1097C336.12 22.7397 337.01 23.5197 337.75 24.4497C338.48 25.3897 339.02 26.4397 339.37 27.6297C339.72 28.8197 339.82 30.0497 339.66 31.3197L335.63 64.2297C335.47 65.4997 335.08 66.6697 334.45 67.7397C333.82 68.8097 333.04 69.6997 332.11 70.4297C331.17 71.1597 330.11 71.6997 328.93 72.0497C327.74 72.3997 326.51 72.4997 325.24 72.3397L314.22 70.9897C313.53 70.9097 313.23 70.5197 313.32 69.8397L319.36 20.4797C319.44 19.7997 319.83 19.4897 320.52 19.5797L331.54 20.9297ZM331.02 30.6297C331.08 30.1397 330.96 29.6997 330.66 29.3197C330.36 28.9397 329.96 28.7097 329.47 28.6497L327.12 28.3597L322.75 64.0597L325.1 64.3497C325.59 64.4097 326.03 64.2897 326.41 63.9897C326.79 63.6897 327.02 63.2897 327.08 62.7997L331.02 30.6297Z" fill="black"/>
<path d="M358.77 71.2609L357.25 77.6709C357.09 78.3409 356.67 78.6009 356 78.4409L340.38 74.7309C339.71 74.5709 339.45 74.1609 339.61 73.4809L351.11 25.1009C351.27 24.4309 351.69 24.1709 352.36 24.3309L367.98 28.0409C368.65 28.2009 368.91 28.6209 368.75 29.2909L367.23 35.7009C367.07 36.3709 366.66 36.6309 365.98 36.4709L357.77 34.5209L355.31 44.8909L362.44 46.5809C363.11 46.7409 363.37 47.1609 363.21 47.8309L361.69 54.2409C361.53 54.9109 361.11 55.1709 360.44 55.0109L353.31 53.3209L349.8 68.0809L358.01 70.0309C358.68 70.1909 358.94 70.6109 358.78 71.2809L358.77 71.2609Z" fill="black"/>
<path d="M397.709 38.9206L395.519 45.1306C395.289 45.7806 394.849 45.9906 394.199 45.7606L389.249 44.0106L375.219 83.7106C374.989 84.3606 374.549 84.5706 373.899 84.3406L367.689 82.1506C367.459 82.0706 367.269 81.9006 367.129 81.6406C366.989 81.3806 366.959 81.1106 367.059 80.8306L381.089 41.1306L376.209 39.4006C375.559 39.1706 375.349 38.7306 375.579 38.0806L377.769 31.8706C377.999 31.2206 378.439 31.0106 379.089 31.2406L397.089 37.6006C397.739 37.8306 397.949 38.2706 397.719 38.9206H397.709Z" fill="black"/>
<path d="M438.05 58.8502L414.2 102.48C413.87 103.09 413.4 103.22 412.79 102.89L407.01 99.7302C406.4 99.4002 406.27 98.9302 406.6 98.3202L416.75 79.7502L412.46 77.4102L402.31 95.9802C401.98 96.5902 401.51 96.7202 400.9 96.3902L395.12 93.2302C394.51 92.9002 394.38 92.4302 394.71 91.8202L418.56 48.1902C418.89 47.5802 419.36 47.4502 419.97 47.7802L425.75 50.9402C426.36 51.2702 426.49 51.7402 426.16 52.3502L416.61 69.8202L420.9 72.1602L430.45 54.6902C430.78 54.0802 431.25 53.9502 431.86 54.2802L437.64 57.4402C438.25 57.7702 438.38 58.2402 438.05 58.8502Z" fill="black"/>
<path d="M436.528 117.97C436.208 118.59 435.768 118.7 435.208 118.3L429.708 114.41C429.188 114.04 429.078 113.54 429.398 112.92L433.528 106.05L429.788 103.4L424.688 109.58C424.208 110.09 423.708 110.15 423.188 109.79L417.688 105.9C417.128 105.5 417.078 105.05 417.558 104.54L450.818 67.1602C451.298 66.6502 451.818 66.6002 452.388 67.0002L460.358 72.6402C460.918 73.0402 461.048 73.5502 460.728 74.1702L436.528 117.96V117.97ZM437.838 98.9502L448.278 81.7702L447.798 81.4302L435.068 96.9902L437.848 98.9602L437.838 98.9502Z" fill="black"/>
<path d="M494.38 103.199L460.6 139.689C460.13 140.199 459.64 140.219 459.14 139.749L453.93 134.919C453.42 134.449 453.4 133.959 453.87 133.459L469.76 116.299L453.2 126.989C452.96 127.099 452.79 127.109 452.68 127.009C452.57 126.909 452.56 126.739 452.66 126.489L462.05 109.159L446.16 126.319C445.69 126.829 445.2 126.849 444.7 126.379L439.49 121.549C438.98 121.079 438.96 120.589 439.43 120.089L473.21 83.5993C473.68 83.0893 474.17 83.0693 474.67 83.5393L479.29 87.8093C479.51 88.0093 479.62 88.2693 479.64 88.5793C479.65 88.8893 479.61 89.1693 479.52 89.4193L465.81 112.829L488.1 97.3593C488.34 97.2493 488.62 97.1793 488.93 97.1693C489.24 97.1593 489.51 97.2493 489.73 97.4493L494.35 101.719C494.86 102.189 494.88 102.679 494.4 103.179L494.38 103.199Z" fill="black"/>
<path d="M480.77 153.561L475.72 157.781C475.19 158.221 474.7 158.181 474.26 157.651L463.96 145.331C463.52 144.801 463.56 144.311 464.09 143.871L502.25 111.991C502.78 111.551 503.27 111.591 503.71 112.121L514.01 124.441C514.45 124.971 514.41 125.461 513.88 125.901L508.83 130.121C508.3 130.561 507.81 130.521 507.37 129.991L501.96 123.521L493.78 130.351L498.48 135.971C498.92 136.501 498.88 136.991 498.35 137.431L493.29 141.651C492.76 142.091 492.27 142.051 491.83 141.521L487.13 135.901L475.49 145.631L480.9 152.101C481.34 152.631 481.3 153.121 480.77 153.561Z" fill="black"/>
<path d="M491.629 181.2C491.129 181.7 490.709 181.69 490.359 181.15L486.649 175.53C486.489 175.28 486.409 174.99 486.429 174.66C486.439 174.33 486.549 174.03 486.739 173.79L498.889 159.29L483.509 169.44C483.019 169.59 482.619 169.44 482.319 168.98L478.689 163.48C478.309 162.9 478.409 162.43 478.979 162.04L520.479 134.64C521.049 134.26 521.529 134.36 521.919 134.93L528.039 144.19C528.749 145.26 529.199 146.4 529.419 147.62C529.629 148.84 529.619 150.03 529.379 151.19C529.139 152.35 528.679 153.45 528.009 154.49C527.329 155.53 526.459 156.4 525.389 157.11L515.319 163.76C513.799 164.77 512.169 165.28 510.439 165.3C508.709 165.32 507.089 164.91 505.589 164.07L491.619 181.19L491.629 181.2ZM507.099 153.87L508.399 155.85C508.669 156.26 509.049 156.52 509.529 156.61C510.009 156.71 510.449 156.62 510.869 156.35L520.319 150.11C520.729 149.84 520.989 149.46 521.079 148.98C521.179 148.5 521.079 148.06 520.819 147.64L519.509 145.66L507.099 153.86V153.87Z" fill="black"/>
<path d="M93.5805 406.129C94.2005 407.249 94.5805 408.429 94.7005 409.659C94.8205 410.889 94.7205 412.079 94.4005 413.219C94.0805 414.359 93.5405 415.419 92.7905 416.409C92.0405 417.389 91.1005 418.199 89.9805 418.819L67.4905 431.359C66.3705 431.979 65.1905 432.359 63.9605 432.479C62.7305 432.599 61.5405 432.499 60.4005 432.179C59.2605 431.859 58.2005 431.319 57.2105 430.569C56.2305 429.819 55.4205 428.879 54.8005 427.759L49.3905 418.069C49.0505 417.469 49.1905 416.999 49.7905 416.659L86.7605 396.039C87.3605 395.699 87.8305 395.839 88.1705 396.439L93.5805 406.129ZM85.4405 411.429C85.8705 411.189 86.1505 410.829 86.2805 410.369C86.4105 409.899 86.3605 409.449 86.1205 409.019L84.9705 406.949L60.0205 420.859L61.1705 422.929C61.4105 423.359 61.7605 423.639 62.2305 423.779C62.7005 423.909 63.1505 423.859 63.5805 423.619L85.4205 411.439L85.4405 411.429Z" fill="black"/>
<path d="M81.8895 455.219L76.5295 459.039C75.9695 459.439 75.4895 459.359 75.0895 458.799L65.7695 445.719C65.3695 445.159 65.4495 444.679 66.0095 444.279L100.48 419.709C101.04 419.309 101.52 419.389 101.92 419.949L111.24 433.029C111.64 433.589 111.56 434.069 111 434.469L105.64 438.289C105.08 438.689 104.6 438.609 104.19 438.049L99.2895 431.179L92.4195 436.079L96.6695 442.049C97.0695 442.609 96.9895 443.089 96.4295 443.489L91.0695 447.309C90.5095 447.709 90.0295 447.629 89.6295 447.069L85.3795 441.099L77.2395 446.899L82.1395 453.769C82.5395 454.329 82.4595 454.809 81.8995 455.209L81.8895 455.219Z" fill="black"/>
<path d="M125.531 450.099C125.921 451.279 126.081 452.449 126.011 453.639C125.941 454.819 125.651 455.979 125.131 457.099C124.611 458.219 123.871 459.209 122.921 460.069L119.611 463.029C119.091 463.489 118.551 463.549 117.971 463.199L112.721 458.859C112.141 458.509 112.121 458.109 112.631 457.649L116.881 453.859C117.251 453.529 117.441 453.119 117.471 452.639C117.501 452.149 117.351 451.719 117.021 451.359L116.631 450.919C116.301 450.549 115.891 450.349 115.411 450.329C114.921 450.299 114.491 450.449 114.131 450.779L94.6911 468.119C94.3211 468.449 94.1211 468.859 94.1011 469.339C94.0811 469.819 94.2211 470.259 94.5511 470.619L94.9411 471.059C95.2711 471.429 95.6811 471.629 96.1611 471.649C96.6511 471.679 97.0811 471.529 97.4411 471.199L104.071 465.289C104.581 464.829 104.981 464.909 105.261 465.519L109.081 471.139C109.361 471.749 109.241 472.289 108.731 472.739L102.931 477.909C101.971 478.759 100.911 479.379 99.7311 479.769C98.5511 480.159 97.3711 480.319 96.1911 480.249C95.0011 480.179 93.8511 479.889 92.7311 479.369C91.6111 478.849 90.6211 478.109 89.7611 477.159L87.8911 475.059C87.0311 474.099 86.4211 473.039 86.0311 471.859C85.6411 470.679 85.4811 469.509 85.5511 468.319C85.6211 467.139 85.9111 465.979 86.4311 464.859C86.9511 463.739 87.6911 462.749 88.6411 461.889L108.631 444.059C109.591 443.209 110.651 442.589 111.831 442.199C113.001 441.809 114.181 441.649 115.371 441.719C116.551 441.789 117.711 442.079 118.831 442.599C119.951 443.119 120.941 443.849 121.801 444.809L123.671 446.909C124.521 447.869 125.141 448.929 125.531 450.109V450.099Z" fill="black"/>
<path d="M125.101 498.339C124.251 499.299 123.261 500.029 122.131 500.549C121.011 501.069 119.851 501.359 118.671 501.429C117.481 501.499 116.301 501.339 115.131 500.949C113.951 500.559 112.891 499.939 111.931 499.089L109.831 497.219C108.871 496.369 108.141 495.379 107.621 494.249C107.101 493.129 106.811 491.969 106.741 490.789C106.671 489.609 106.831 488.429 107.221 487.249C107.611 486.069 108.231 485.009 109.081 484.049L126.921 464.059C127.771 463.099 128.761 462.369 129.881 461.849C131.001 461.329 132.161 461.039 133.341 460.969C134.521 460.899 135.701 461.059 136.881 461.449C138.051 461.839 139.121 462.459 140.081 463.309L142.181 465.179C143.141 466.029 143.871 467.019 144.391 468.149C144.911 469.269 145.201 470.429 145.271 471.609C145.341 472.789 145.181 473.969 144.791 475.149C144.401 476.329 143.781 477.389 142.931 478.349L125.091 498.339H125.101ZM136.231 472.859C136.561 472.489 136.711 472.059 136.681 471.579C136.651 471.089 136.451 470.679 136.091 470.359L135.651 469.969C135.281 469.639 134.851 469.489 134.371 469.519C133.881 469.549 133.471 469.749 133.151 470.109L115.811 489.549C115.481 489.919 115.331 490.349 115.361 490.829C115.391 491.319 115.581 491.729 115.951 492.049L116.391 492.439C116.761 492.769 117.191 492.919 117.671 492.889C118.161 492.859 118.571 492.659 118.891 492.299L136.231 472.859Z" fill="black"/>
<path d="M135.461 515.789C135.061 516.359 134.561 516.429 133.961 515.999L128.571 512.219C128.041 511.849 127.981 511.389 128.381 510.819L152.701 476.179C153.101 475.609 153.581 475.529 154.141 475.929L163.231 482.309C164.281 483.049 165.121 483.939 165.771 484.999C166.411 486.059 166.841 487.169 167.051 488.339C167.251 489.509 167.231 490.699 166.981 491.909C166.731 493.119 166.241 494.249 165.501 495.299L160.271 502.749C159.221 504.239 157.831 505.269 156.111 505.839C154.391 506.409 152.671 506.569 150.971 506.339L147.161 524.009C146.881 524.659 146.481 524.799 145.961 524.429L140.451 520.559C140.211 520.389 140.031 520.149 139.921 519.829C139.811 519.509 139.801 519.199 139.891 518.909L143.341 504.599L135.471 515.799L135.461 515.789ZM148.981 496.529L150.921 497.889C151.321 498.169 151.771 498.269 152.251 498.189C152.731 498.109 153.111 497.859 153.401 497.459L158.201 490.619C158.481 490.219 158.581 489.769 158.501 489.289C158.411 488.809 158.171 488.429 157.771 488.139L155.831 486.779L148.981 496.529Z" fill="black"/>
<path d="M166.01 509.349C165.4 509.019 165.27 508.549 165.6 507.939L168.32 503.019C168.65 502.419 169.12 502.279 169.73 502.619L183.33 510.139C183.93 510.469 184.07 510.939 183.73 511.549L181.01 516.469C180.68 517.079 180.21 517.209 179.6 516.879L166 509.359L166.01 509.349Z" fill="black"/>
<path d="M206.91 506.09C208.09 506.59 209.11 507.29 209.96 508.19C210.81 509.09 211.46 510.09 211.9 511.19C212.34 512.29 212.57 513.46 212.58 514.7C212.58 515.94 212.34 517.15 211.84 518.33L207.99 527.39C207.49 528.57 206.79 529.59 205.89 530.44C204.99 531.29 203.99 531.94 202.89 532.38C201.79 532.82 200.62 533.05 199.38 533.06C198.14 533.07 196.93 532.82 195.75 532.32L192.55 530.96L186.73 544.65C186.46 545.29 186.01 545.47 185.37 545.2L179.31 542.62C178.67 542.35 178.49 541.9 178.76 541.26L195.32 502.31C195.59 501.67 196.04 501.49 196.68 501.76L206.9 506.1L206.91 506.09ZM203.73 515.27C203.92 514.82 203.93 514.36 203.75 513.91C203.57 513.46 203.25 513.13 202.79 512.94L200.61 512.01L195.66 523.66L197.84 524.59C198.29 524.78 198.75 524.79 199.2 524.61C199.65 524.43 199.98 524.11 200.17 523.66L203.73 515.28V515.27Z" fill="black"/>
<path d="M215.871 555.279C215.671 555.939 215.221 556.169 214.511 555.959L208.191 554.089C207.571 553.909 207.371 553.489 207.561 552.819L219.561 512.229C219.761 511.569 220.181 511.329 220.851 511.529L231.491 514.679C232.721 515.039 233.811 515.619 234.761 516.419C235.711 517.219 236.471 518.129 237.031 519.179C237.601 520.219 237.951 521.359 238.111 522.589C238.261 523.819 238.151 525.049 237.791 526.279L235.211 535.009C234.691 536.759 233.711 538.179 232.251 539.269C230.801 540.359 229.221 541.059 227.531 541.389L229.551 559.349C229.501 560.059 229.161 560.319 228.551 560.129L222.091 558.219C221.811 558.139 221.561 557.959 221.361 557.699C221.161 557.429 221.051 557.139 221.041 556.829L219.741 542.169L215.861 555.299L215.871 555.279ZM222.541 532.709L224.811 533.379C225.281 533.519 225.731 533.469 226.161 533.239C226.591 533.009 226.871 532.649 227.011 532.179L229.381 524.159C229.521 523.689 229.471 523.239 229.241 522.809C229.011 522.379 228.651 522.099 228.181 521.959L225.911 521.289L222.531 532.719L222.541 532.709Z" fill="black"/>
<path d="M260.81 557.299C260.59 558.569 260.14 559.709 259.46 560.749C258.78 561.779 257.95 562.639 256.99 563.319C256.02 563.999 254.93 564.489 253.73 564.779C252.53 565.069 251.29 565.109 250.03 564.889L247.26 564.409C246 564.189 244.85 563.739 243.81 563.059C242.78 562.379 241.92 561.559 241.24 560.579C240.56 559.609 240.07 558.519 239.78 557.319C239.49 556.119 239.45 554.889 239.67 553.619L244.25 527.229C244.47 525.969 244.92 524.819 245.6 523.779C246.28 522.739 247.11 521.889 248.08 521.199C249.05 520.519 250.14 520.029 251.34 519.739C252.54 519.449 253.78 519.409 255.04 519.629L257.81 520.109C259.07 520.329 260.22 520.779 261.26 521.459C262.29 522.139 263.15 522.969 263.84 523.939C264.52 524.909 265.01 525.999 265.3 527.199C265.59 528.399 265.63 529.639 265.41 530.899L260.83 557.289L260.81 557.299ZM256.8 529.789C256.89 529.299 256.79 528.859 256.51 528.459C256.23 528.059 255.84 527.819 255.36 527.729L254.78 527.629C254.29 527.549 253.85 527.649 253.45 527.929C253.05 528.209 252.81 528.599 252.73 529.079L248.27 554.739C248.19 555.229 248.28 555.669 248.57 556.069C248.85 556.469 249.23 556.709 249.72 556.799L250.3 556.899C250.79 556.979 251.23 556.889 251.63 556.609C252.03 556.329 252.27 555.949 252.36 555.459L256.82 529.799L256.8 529.789Z" fill="black"/>
<path d="M284.741 523.56C286.021 523.64 287.211 523.95 288.321 524.51C289.421 525.07 290.371 525.79 291.161 526.68C291.951 527.57 292.551 528.59 292.981 529.75C293.401 530.91 293.581 532.13 293.501 533.41L292.921 543.24C292.841 544.52 292.531 545.71 291.971 546.82C291.411 547.92 290.691 548.87 289.801 549.66C288.911 550.45 287.891 551.05 286.731 551.48C285.571 551.91 284.351 552.08 283.071 552L279.601 551.8L278.721 566.65C278.681 567.34 278.311 567.66 277.631 567.62L271.051 567.23C270.361 567.19 270.041 566.82 270.081 566.13L272.581 523.88C272.621 523.19 272.991 522.87 273.681 522.91L284.761 523.57L284.741 523.56ZM284.831 533.28C284.861 532.79 284.711 532.36 284.391 531.99C284.071 531.63 283.661 531.43 283.161 531.4L280.801 531.26L280.051 543.89L282.411 544.03C282.901 544.06 283.331 543.91 283.701 543.59C284.061 543.27 284.261 542.86 284.291 542.36L284.831 533.27V533.28Z" fill="black"/>
<path d="M313.351 523.47C314.511 523.9 315.531 524.52 316.411 525.31C317.291 526.1 318.011 527.05 318.561 528.16C319.111 529.27 319.421 530.46 319.491 531.74L319.641 534.55C319.681 535.24 319.381 535.7 318.751 535.93L312.121 538.06C311.491 538.29 311.161 538.06 311.121 537.37L310.871 532.57C310.841 532.08 310.651 531.67 310.291 531.34C309.931 531.01 309.501 530.86 309.011 530.89L308.421 530.92C307.931 530.95 307.521 531.14 307.191 531.5C306.861 531.86 306.711 532.29 306.741 532.78L306.981 537.29C307.061 537.83 307.181 538.29 307.351 538.68C307.521 539.07 307.811 539.45 308.231 539.82L318.291 546.55C319.111 547.2 319.661 547.87 319.921 548.58C320.181 549.28 320.381 550.07 320.531 550.96L320.931 558.5C321.001 559.78 320.821 561 320.381 562.16C319.951 563.32 319.331 564.34 318.541 565.22C317.751 566.1 316.801 566.82 315.691 567.37C314.581 567.92 313.391 568.23 312.111 568.3L309.301 568.45C308.021 568.52 306.801 568.33 305.641 567.9C304.481 567.47 303.461 566.85 302.581 566.06C301.701 565.27 300.981 564.32 300.431 563.21C299.881 562.1 299.571 560.91 299.501 559.63L299.281 555.49C299.241 554.8 299.541 554.34 300.171 554.11L306.801 551.98C307.431 551.75 307.761 551.98 307.801 552.67L308.121 558.8C308.151 559.29 308.341 559.7 308.701 560.03C309.061 560.36 309.491 560.51 309.981 560.48L310.571 560.45C311.061 560.42 311.471 560.23 311.801 559.87C312.131 559.51 312.281 559.08 312.251 558.59L312.011 554.01C311.931 553.37 311.801 552.81 311.631 552.33C311.461 551.85 311.141 551.42 310.671 551.05L300.751 544.24C299.971 543.59 299.411 542.93 299.051 542.25C298.691 541.58 298.481 540.68 298.431 539.54L298.081 532.89C298.011 531.61 298.191 530.39 298.631 529.23C299.061 528.07 299.671 527.05 300.471 526.17C301.261 525.29 302.211 524.57 303.321 524.02C304.431 523.47 305.621 523.16 306.901 523.09L309.711 522.94C310.991 522.87 312.211 523.06 313.371 523.49L313.351 523.47Z" fill="black"/>
<path d="M327.801 543.119C327.121 543.229 326.721 542.939 326.621 542.259L325.741 536.699C325.631 536.019 325.921 535.619 326.601 535.519L341.951 533.089C342.631 532.979 343.031 533.269 343.131 533.949L344.011 539.499C344.121 540.179 343.831 540.579 343.151 540.689L327.801 543.109V543.119Z" fill="black"/>
<path d="M365.36 558.349C365.52 559.019 365.27 559.439 364.6 559.599L358.2 561.159C357.53 561.319 357.11 561.069 356.95 560.399L346.92 519.279C346.76 518.609 347.01 518.189 347.68 518.029L354.08 516.469C354.75 516.309 355.17 516.559 355.33 517.229L365.36 558.349Z" fill="black"/>
<path d="M384.371 507.769L398.401 547.699C398.631 548.349 398.421 548.789 397.771 549.019L393.301 550.589C393.021 550.689 392.721 550.689 392.401 550.589C392.081 550.489 391.831 550.349 391.661 550.149L377.861 534.529L384.241 552.679C384.471 553.329 384.261 553.769 383.611 553.999L377.401 556.179C376.751 556.409 376.311 556.199 376.081 555.549L362.051 515.619C361.821 514.969 362.031 514.529 362.681 514.299L367.291 512.679C367.571 512.579 367.871 512.579 368.191 512.679C368.511 512.779 368.761 512.929 368.931 513.119L383.331 530.879L376.221 510.629C375.991 509.979 376.201 509.539 376.851 509.309L383.061 507.129C383.711 506.899 384.151 507.109 384.381 507.759L384.371 507.769Z" fill="black"/>
<path d="M408.021 496.459L410.911 502.379C411.211 502.999 411.061 503.459 410.441 503.769L405.721 506.079L420.971 537.259C421.271 537.879 421.111 538.339 420.491 538.649L414.571 541.539C414.351 541.649 414.091 541.659 413.811 541.579C413.521 541.499 413.311 541.329 413.191 541.059L397.941 509.879L393.291 512.159C392.671 512.459 392.211 512.309 391.901 511.679L389.011 505.759C388.711 505.139 388.861 504.679 389.481 504.369L406.631 495.979C407.251 495.679 407.711 495.839 408.021 496.459Z" fill="black"/>
<path d="M446.96 514.52L450.45 520.1C450.82 520.69 450.71 521.16 450.12 521.53L436.5 530.04C435.91 530.41 435.44 530.3 435.07 529.71L412.64 493.81C412.27 493.23 412.38 492.75 412.97 492.38L426.59 483.87C427.18 483.5 427.65 483.61 428.02 484.2L431.51 489.79C431.88 490.38 431.76 490.85 431.18 491.22L424.03 495.69L428.5 502.84L434.71 498.96C435.29 498.59 435.77 498.7 436.14 499.29L439.63 504.88C440 505.47 439.89 505.94 439.3 506.31L433.09 510.19L438.38 518.66L445.53 514.19C446.11 513.82 446.59 513.93 446.96 514.52Z" fill="black"/>
<path d="M466.261 508.449C466.691 508.989 466.611 509.489 466.031 509.949L460.871 514.039C460.371 514.439 459.901 514.369 459.471 513.829L433.171 480.669C432.741 480.129 432.801 479.639 433.341 479.209L442.041 472.309C443.041 471.509 444.151 470.959 445.341 470.639C446.541 470.319 447.721 470.229 448.901 470.369C450.081 470.509 451.211 470.869 452.311 471.449C453.401 472.029 454.351 472.829 455.141 473.829L460.801 480.959C461.931 482.389 462.531 484.009 462.581 485.829C462.631 487.639 462.311 489.339 461.601 490.909L477.451 499.589C477.991 500.039 478.011 500.459 477.511 500.859L472.231 505.039C472.001 505.219 471.711 505.319 471.381 505.339C471.051 505.349 470.751 505.279 470.491 505.099L457.751 497.729L466.261 508.459V508.449ZM451.641 490.009L453.501 488.539C453.891 488.229 454.111 487.839 454.161 487.349C454.221 486.869 454.091 486.429 453.781 486.039L448.581 479.489C448.271 479.099 447.881 478.879 447.391 478.829C446.901 478.769 446.471 478.899 446.081 479.209L444.231 480.679L451.631 490.009H451.641Z" fill="black"/>
<path d="M490.34 487.28C490.82 487.78 490.81 488.27 490.31 488.74L485.56 493.3C485.06 493.78 484.57 493.77 484.1 493.27L454.8 462.73C454.32 462.23 454.33 461.74 454.83 461.27L459.58 456.71C460.08 456.23 460.57 456.24 461.05 456.74L490.35 487.28H490.34Z" fill="black"/>
<path d="M504.921 461.629L509.881 465.969C510.401 466.429 510.431 466.909 509.981 467.429L499.411 479.519C498.951 480.039 498.471 480.069 497.951 479.619L466.091 451.749C465.571 451.299 465.541 450.809 465.991 450.289L476.561 438.199C477.011 437.679 477.501 437.649 478.021 438.099L482.981 442.439C483.501 442.899 483.531 443.379 483.081 443.899L477.531 450.249L483.881 455.799L488.701 450.289C489.161 449.769 489.641 449.739 490.161 450.189L495.121 454.529C495.641 454.989 495.671 455.469 495.221 455.989L490.401 461.499L497.921 468.079L503.471 461.729C503.931 461.209 504.411 461.179 504.931 461.629H504.921Z" fill="black"/>
<path d="M493.8 416.15L522.15 435.92C523.2 436.65 524.05 437.55 524.7 438.6C525.35 439.65 525.78 440.77 525.99 441.93C526.2 443.1 526.18 444.29 525.94 445.5C525.69 446.71 525.21 447.85 524.47 448.9L522.86 451.21C522.13 452.26 521.23 453.11 520.18 453.76C519.13 454.41 518.02 454.84 516.85 455.04C515.68 455.25 514.49 455.23 513.28 454.99C512.07 454.75 510.93 454.26 509.88 453.52L481.54 433.75C480.97 433.35 480.89 432.87 481.28 432.31L485.05 426.91C485.44 426.34 485.93 426.26 486.49 426.65L514.53 446.21C514.93 446.49 515.38 446.59 515.86 446.5C516.34 446.42 516.72 446.17 517 445.76L517.34 445.27C517.62 444.87 517.72 444.42 517.63 443.94C517.54 443.46 517.3 443.08 516.9 442.79L488.86 423.23C488.29 422.83 488.21 422.35 488.6 421.79L492.37 416.39C492.76 415.82 493.25 415.74 493.81 416.13L493.8 416.15Z" fill="black"/>
<path d="M538.22 423.599C538.83 423.929 538.96 424.419 538.61 425.069L535.49 430.869C535.19 431.439 534.73 431.549 534.12 431.229L496.84 411.189C496.23 410.859 496.09 410.399 496.42 409.789L501.68 400.009C502.29 398.879 503.08 397.929 504.05 397.169C505.02 396.399 506.08 395.849 507.21 395.509C508.35 395.169 509.53 395.049 510.76 395.149C511.99 395.249 513.17 395.609 514.3 396.209L522.32 400.519C523.93 401.379 525.11 402.639 525.88 404.279C526.65 405.929 527.02 407.609 526.99 409.329L544.98 411.019C545.66 411.219 545.85 411.599 545.54 412.159L542.35 418.089C542.21 418.349 541.99 418.549 541.69 418.699C541.39 418.849 541.08 418.889 540.78 418.839L526.16 417.119L538.22 423.599ZM517.49 412.459L518.61 410.369C518.84 409.939 518.89 409.479 518.75 409.019C518.61 408.549 518.32 408.199 517.89 407.969L510.52 404.009C510.09 403.779 509.63 403.729 509.17 403.869C508.7 404.009 508.35 404.299 508.12 404.729L507 406.819L517.49 412.459Z" fill="black"/>
<path d="M43.1609 273L50.1209 289.69L68.1509 288.22L54.4309 300L61.3909 316.69L45.9509 307.28L32.2209 319.06L36.4009 301.46L20.9609 292.05L38.9809 290.59L43.1609 273Z" fill="black"/>
<path d="M548.711 273L541.751 289.69L523.721 288.22L537.451 300L530.481 316.69L545.931 307.28L559.651 319.06L555.471 301.46L570.911 292.05L552.891 290.59L548.711 273Z" fill="black"/>
</g>
<defs>
<clipPath id="clip0_274_31">
<rect width="591.89" height="591.89" fill="white"/>
</clipPath>
</defs>
</svg>
